<mxfile host="app.diagrams.net" modified="2020-10-15T08:08:34.689Z" agent="5.0 (Macintosh; Intel Mac OS X 10_15_7) AppleWebKit/605.1.15 (KHTML, like Gecko) Version/14.0 Safari/605.1.15" etag="61AYyDRsfGZkJIUc6qnw" version="13.8.0" type="github">
  <diagram id="SQ1Hr3vqUpdMy5etmE_r" name="Page-1">
    <mxGraphModel dx="1135" dy="814" grid="1" gridSize="10" guides="1" tooltips="1" connect="1" arrows="1" fold="1" page="1" pageScale="1" pageWidth="827" pageHeight="1169" math="0" shadow="0">
      <root>
        <mxCell id="0" />
        <mxCell id="1" parent="0" />
        <mxCell id="fcw0E19ycwfvZkGCP6LW-5" value="图文+视频" style="edgeStyle=orthogonalEdgeStyle;rounded=0;orthogonalLoop=1;jettySize=auto;html=1;exitX=0.5;exitY=1;exitDx=0;exitDy=0;" parent="1" source="fcw0E19ycwfvZkGCP6LW-1" target="fcw0E19ycwfvZkGCP6LW-2" edge="1">
          <mxGeometry relative="1" as="geometry" />
        </mxCell>
        <mxCell id="fcw0E19ycwfvZkGCP6LW-1" value="360导航右侧流" style="rounded=0;whiteSpace=wrap;html=1;" parent="1" vertex="1">
          <mxGeometry x="190" y="90" width="100" height="30" as="geometry" />
        </mxCell>
        <mxCell id="fcw0E19ycwfvZkGCP6LW-22" style="edgeStyle=orthogonalEdgeStyle;rounded=0;orthogonalLoop=1;jettySize=auto;html=1;exitX=0.5;exitY=1;exitDx=0;exitDy=0;entryX=0.5;entryY=0;entryDx=0;entryDy=0;" parent="1" source="fcw0E19ycwfvZkGCP6LW-2" target="fcw0E19ycwfvZkGCP6LW-19" edge="1">
          <mxGeometry relative="1" as="geometry" />
        </mxCell>
        <mxCell id="fcw0E19ycwfvZkGCP6LW-2" value="引擎" style="rounded=0;whiteSpace=wrap;html=1;" parent="1" vertex="1">
          <mxGeometry x="180" y="170" width="120" height="40" as="geometry" />
        </mxCell>
        <mxCell id="fcw0E19ycwfvZkGCP6LW-3" value="二级引擎" style="rounded=0;whiteSpace=wrap;html=1;" parent="1" vertex="1">
          <mxGeometry x="370" y="130" width="80" height="30" as="geometry" />
        </mxCell>
        <mxCell id="fcw0E19ycwfvZkGCP6LW-6" value="" style="endArrow=classic;html=1;exitX=1;exitY=0.5;exitDx=0;exitDy=0;entryX=0;entryY=0.5;entryDx=0;entryDy=0;" parent="1" source="fcw0E19ycwfvZkGCP6LW-2" target="fcw0E19ycwfvZkGCP6LW-3" edge="1">
          <mxGeometry width="50" height="50" relative="1" as="geometry">
            <mxPoint x="390" y="440" as="sourcePoint" />
            <mxPoint x="440" y="390" as="targetPoint" />
          </mxGeometry>
        </mxCell>
        <mxCell id="fcw0E19ycwfvZkGCP6LW-7" value="召回视频" style="edgeLabel;html=1;align=center;verticalAlign=middle;resizable=0;points=[];" parent="fcw0E19ycwfvZkGCP6LW-6" vertex="1" connectable="0">
          <mxGeometry x="-0.0209" y="2" relative="1" as="geometry">
            <mxPoint as="offset" />
          </mxGeometry>
        </mxCell>
        <mxCell id="fcw0E19ycwfvZkGCP6LW-8" value="视频召回" style="rounded=0;whiteSpace=wrap;html=1;" parent="1" vertex="1">
          <mxGeometry x="490" y="110" width="60" height="20" as="geometry" />
        </mxCell>
        <mxCell id="fcw0E19ycwfvZkGCP6LW-9" value="视频精排" style="rounded=0;whiteSpace=wrap;html=1;" parent="1" vertex="1">
          <mxGeometry x="490" y="150" width="60" height="20" as="geometry" />
        </mxCell>
        <mxCell id="fcw0E19ycwfvZkGCP6LW-10" value="" style="endArrow=classic;html=1;exitX=1;exitY=0.5;exitDx=0;exitDy=0;entryX=0;entryY=0.5;entryDx=0;entryDy=0;" parent="1" source="fcw0E19ycwfvZkGCP6LW-3" target="fcw0E19ycwfvZkGCP6LW-8" edge="1">
          <mxGeometry width="50" height="50" relative="1" as="geometry">
            <mxPoint x="430" y="230" as="sourcePoint" />
            <mxPoint x="440" y="390" as="targetPoint" />
          </mxGeometry>
        </mxCell>
        <mxCell id="fcw0E19ycwfvZkGCP6LW-11" value="" style="endArrow=classic;html=1;exitX=1;exitY=0.5;exitDx=0;exitDy=0;entryX=0;entryY=0.5;entryDx=0;entryDy=0;" parent="1" source="fcw0E19ycwfvZkGCP6LW-3" target="fcw0E19ycwfvZkGCP6LW-9" edge="1">
          <mxGeometry width="50" height="50" relative="1" as="geometry">
            <mxPoint x="390" y="440" as="sourcePoint" />
            <mxPoint x="440" y="390" as="targetPoint" />
          </mxGeometry>
        </mxCell>
        <mxCell id="fcw0E19ycwfvZkGCP6LW-12" value="图文召回" style="rounded=0;whiteSpace=wrap;html=1;" parent="1" vertex="1">
          <mxGeometry x="350" y="200" width="70" height="20" as="geometry" />
        </mxCell>
        <mxCell id="fcw0E19ycwfvZkGCP6LW-13" value="图文粗排" style="rounded=0;whiteSpace=wrap;html=1;" parent="1" vertex="1">
          <mxGeometry x="350" y="240" width="70" height="20" as="geometry" />
        </mxCell>
        <mxCell id="fcw0E19ycwfvZkGCP6LW-14" value="图文精排" style="rounded=0;whiteSpace=wrap;html=1;" parent="1" vertex="1">
          <mxGeometry x="350" y="280" width="70" height="20" as="geometry" />
        </mxCell>
        <mxCell id="fcw0E19ycwfvZkGCP6LW-15" value="" style="endArrow=classic;html=1;exitX=1;exitY=0.75;exitDx=0;exitDy=0;entryX=0;entryY=0.5;entryDx=0;entryDy=0;" parent="1" source="fcw0E19ycwfvZkGCP6LW-2" target="fcw0E19ycwfvZkGCP6LW-13" edge="1">
          <mxGeometry width="50" height="50" relative="1" as="geometry">
            <mxPoint x="390" y="440" as="sourcePoint" />
            <mxPoint x="440" y="390" as="targetPoint" />
          </mxGeometry>
        </mxCell>
        <mxCell id="fcw0E19ycwfvZkGCP6LW-17" value="" style="endArrow=classic;html=1;exitX=1;exitY=0.75;exitDx=0;exitDy=0;entryX=0;entryY=0.5;entryDx=0;entryDy=0;" parent="1" source="fcw0E19ycwfvZkGCP6LW-2" target="fcw0E19ycwfvZkGCP6LW-14" edge="1">
          <mxGeometry width="50" height="50" relative="1" as="geometry">
            <mxPoint x="400" y="450" as="sourcePoint" />
            <mxPoint x="450" y="400" as="targetPoint" />
          </mxGeometry>
        </mxCell>
        <mxCell id="fcw0E19ycwfvZkGCP6LW-18" value="" style="endArrow=classic;html=1;exitX=1;exitY=0.75;exitDx=0;exitDy=0;entryX=0;entryY=0.5;entryDx=0;entryDy=0;" parent="1" source="fcw0E19ycwfvZkGCP6LW-2" target="fcw0E19ycwfvZkGCP6LW-12" edge="1">
          <mxGeometry width="50" height="50" relative="1" as="geometry">
            <mxPoint x="410" y="460" as="sourcePoint" />
            <mxPoint x="460" y="410" as="targetPoint" />
          </mxGeometry>
        </mxCell>
        <mxCell id="fcw0E19ycwfvZkGCP6LW-24" style="edgeStyle=orthogonalEdgeStyle;rounded=0;orthogonalLoop=1;jettySize=auto;html=1;exitX=0.5;exitY=1;exitDx=0;exitDy=0;entryX=0.5;entryY=0;entryDx=0;entryDy=0;" parent="1" source="fcw0E19ycwfvZkGCP6LW-19" target="fcw0E19ycwfvZkGCP6LW-23" edge="1">
          <mxGeometry relative="1" as="geometry" />
        </mxCell>
        <mxCell id="fcw0E19ycwfvZkGCP6LW-19" value="引擎内部&lt;br&gt;数据融合" style="rounded=0;whiteSpace=wrap;html=1;" parent="1" vertex="1">
          <mxGeometry x="180" y="300" width="120" height="60" as="geometry" />
        </mxCell>
        <mxCell id="fcw0E19ycwfvZkGCP6LW-20" value="" style="curved=1;endArrow=classic;html=1;exitX=0.5;exitY=1;exitDx=0;exitDy=0;entryX=1;entryY=0.5;entryDx=0;entryDy=0;" parent="1" source="fcw0E19ycwfvZkGCP6LW-14" target="fcw0E19ycwfvZkGCP6LW-19" edge="1">
          <mxGeometry width="50" height="50" relative="1" as="geometry">
            <mxPoint x="390" y="440" as="sourcePoint" />
            <mxPoint x="440" y="390" as="targetPoint" />
            <Array as="points">
              <mxPoint x="390" y="390" />
            </Array>
          </mxGeometry>
        </mxCell>
        <mxCell id="fcw0E19ycwfvZkGCP6LW-21" value="" style="curved=1;endArrow=classic;html=1;exitX=0.5;exitY=1;exitDx=0;exitDy=0;entryX=1;entryY=0.75;entryDx=0;entryDy=0;" parent="1" source="fcw0E19ycwfvZkGCP6LW-3" target="fcw0E19ycwfvZkGCP6LW-19" edge="1">
          <mxGeometry width="50" height="50" relative="1" as="geometry">
            <mxPoint x="390" y="440" as="sourcePoint" />
            <mxPoint x="440" y="390" as="targetPoint" />
            <Array as="points">
              <mxPoint x="560" y="300" />
              <mxPoint x="390" y="390" />
            </Array>
          </mxGeometry>
        </mxCell>
        <mxCell id="fcw0E19ycwfvZkGCP6LW-23" value="策略服务" style="rounded=0;whiteSpace=wrap;html=1;" parent="1" vertex="1">
          <mxGeometry x="180" y="410" width="120" height="60" as="geometry" />
        </mxCell>
        <mxCell id="fcw0E19ycwfvZkGCP6LW-25" value="" style="edgeStyle=orthogonalEdgeStyle;rounded=0;orthogonalLoop=1;jettySize=auto;html=1;exitX=0.5;exitY=1;exitDx=0;exitDy=0;" parent="1" source="fcw0E19ycwfvZkGCP6LW-26" target="fcw0E19ycwfvZkGCP6LW-28" edge="1">
          <mxGeometry relative="1" as="geometry" />
        </mxCell>
        <mxCell id="fcw0E19ycwfvZkGCP6LW-26" value="视频流scene=25" style="rounded=0;whiteSpace=wrap;html=1;" parent="1" vertex="1">
          <mxGeometry x="660" y="90" width="100" height="30" as="geometry" />
        </mxCell>
        <mxCell id="fcw0E19ycwfvZkGCP6LW-28" value="引擎" style="rounded=0;whiteSpace=wrap;html=1;" parent="1" vertex="1">
          <mxGeometry x="650" y="170" width="120" height="40" as="geometry" />
        </mxCell>
        <mxCell id="fcw0E19ycwfvZkGCP6LW-36" value="视频召回" style="rounded=0;whiteSpace=wrap;html=1;" parent="1" vertex="1">
          <mxGeometry x="827" y="160" width="70" height="20" as="geometry" />
        </mxCell>
        <mxCell id="fcw0E19ycwfvZkGCP6LW-38" value="图文精排" style="rounded=0;whiteSpace=wrap;html=1;" parent="1" vertex="1">
          <mxGeometry x="827" y="200" width="70" height="20" as="geometry" />
        </mxCell>
        <mxCell id="fcw0E19ycwfvZkGCP6LW-40" value="" style="endArrow=classic;html=1;entryX=0;entryY=0.5;entryDx=0;entryDy=0;" parent="1" target="fcw0E19ycwfvZkGCP6LW-38" edge="1">
          <mxGeometry width="50" height="50" relative="1" as="geometry">
            <mxPoint x="770" y="190" as="sourcePoint" />
            <mxPoint x="920" y="400" as="targetPoint" />
          </mxGeometry>
        </mxCell>
        <mxCell id="fcw0E19ycwfvZkGCP6LW-41" value="" style="endArrow=classic;html=1;exitX=1;exitY=0.5;exitDx=0;exitDy=0;entryX=0;entryY=0.5;entryDx=0;entryDy=0;" parent="1" source="fcw0E19ycwfvZkGCP6LW-28" target="fcw0E19ycwfvZkGCP6LW-36" edge="1">
          <mxGeometry width="50" height="50" relative="1" as="geometry">
            <mxPoint x="880" y="460" as="sourcePoint" />
            <mxPoint x="930" y="410" as="targetPoint" />
          </mxGeometry>
        </mxCell>
        <mxCell id="fcw0E19ycwfvZkGCP6LW-42" style="edgeStyle=orthogonalEdgeStyle;rounded=0;orthogonalLoop=1;jettySize=auto;html=1;exitX=0.5;exitY=1;exitDx=0;exitDy=0;entryX=0.5;entryY=0;entryDx=0;entryDy=0;" parent="1" source="fcw0E19ycwfvZkGCP6LW-28" target="fcw0E19ycwfvZkGCP6LW-46" edge="1">
          <mxGeometry relative="1" as="geometry">
            <mxPoint x="710" y="360" as="sourcePoint" />
          </mxGeometry>
        </mxCell>
        <mxCell id="fcw0E19ycwfvZkGCP6LW-46" value="策略服务" style="rounded=0;whiteSpace=wrap;html=1;" parent="1" vertex="1">
          <mxGeometry x="650" y="250" width="120" height="40" as="geometry" />
        </mxCell>
      </root>
    </mxGraphModel>
  </diagram>
</mxfile>
